<svg xmlns="http://www.w3.org/2000/svg" version="1.1" xmlns:xlink="http://www.w3.org/1999/xlink" xmlns:svgjs="http://svgjs.dev/svgjs" viewBox="0 0 2400 800"><defs><linearGradient x1="50%" y1="0%" x2="50%" y2="100%" id="sssurf-grad"><stop stop-color="hsl(205, 69%, 60%)" stop-opacity="1" offset="0%"></stop><stop stop-color="hsl(205, 69%, 80%)" stop-opacity="1" offset="100%"></stop></linearGradient></defs><g fill="url(#sssurf-grad)" transform="matrix(1,0,0,1,0,-286.0032043457031)"><path d="M 0 306.00644629778986 Q 600 450 600 313.3544022565438 Q 1200 450 1200 315.0022937454791 Q 1800 450 1800 344.69363302043706 Q 2400 450 2400 327.2064710971174 L 2400 800 L 0 800 L 0 322.1723295746712 Z" transform="matrix(1,0,0,1,0,37)" opacity="0.05"></path><path d="M 0 306.00644629778986 Q 600 450 600 313.3544022565438 Q 1200 450 1200 315.0022937454791 Q 1800 450 1800 344.69363302043706 Q 2400 450 2400 327.2064710971174 L 2400 800 L 0 800 L 0 322.1723295746712 Z" transform="matrix(1,0,0,1,0,74)" opacity="0.11"></path><path d="M 0 306.00644629778986 Q 600 450 600 313.3544022565438 Q 1200 450 1200 315.0022937454791 Q 1800 450 1800 344.69363302043706 Q 2400 450 2400 327.2064710971174 L 2400 800 L 0 800 L 0 322.1723295746712 Z" transform="matrix(1,0,0,1,0,111)" opacity="0.17"></path><path d="M 0 306.00644629778986 Q 600 450 600 313.3544022565438 Q 1200 450 1200 315.0022937454791 Q 1800 450 1800 344.69363302043706 Q 2400 450 2400 327.2064710971174 L 2400 800 L 0 800 L 0 322.1723295746712 Z" transform="matrix(1,0,0,1,0,148)" opacity="0.23"></path><path d="M 0 306.00644629778986 Q 600 450 600 313.3544022565438 Q 1200 450 1200 315.0022937454791 Q 1800 450 1800 344.69363302043706 Q 2400 450 2400 327.2064710971174 L 2400 800 L 0 800 L 0 322.1723295746712 Z" transform="matrix(1,0,0,1,0,185)" opacity="0.29"></path><path d="M 0 306.00644629778986 Q 600 450 600 313.3544022565438 Q 1200 450 1200 315.0022937454791 Q 1800 450 1800 344.69363302043706 Q 2400 450 2400 327.2064710971174 L 2400 800 L 0 800 L 0 322.1723295746712 Z" transform="matrix(1,0,0,1,0,222)" opacity="0.35"></path><path d="M 0 306.00644629778986 Q 600 450 600 313.3544022565438 Q 1200 450 1200 315.0022937454791 Q 1800 450 1800 344.69363302043706 Q 2400 450 2400 327.2064710971174 L 2400 800 L 0 800 L 0 322.1723295746712 Z" transform="matrix(1,0,0,1,0,259)" opacity="0.41"></path><path d="M 0 306.00644629778986 Q 600 450 600 313.3544022565438 Q 1200 450 1200 315.0022937454791 Q 1800 450 1800 344.69363302043706 Q 2400 450 2400 327.2064710971174 L 2400 800 L 0 800 L 0 322.1723295746712 Z" transform="matrix(1,0,0,1,0,296)" opacity="0.47"></path><path d="M 0 306.00644629778986 Q 600 450 600 313.3544022565438 Q 1200 450 1200 315.0022937454791 Q 1800 450 1800 344.69363302043706 Q 2400 450 2400 327.2064710971174 L 2400 800 L 0 800 L 0 322.1723295746712 Z" transform="matrix(1,0,0,1,0,333)" opacity="0.53"></path><path d="M 0 306.00644629778986 Q 600 450 600 313.3544022565438 Q 1200 450 1200 315.0022937454791 Q 1800 450 1800 344.69363302043706 Q 2400 450 2400 327.2064710971174 L 2400 800 L 0 800 L 0 322.1723295746712 Z" transform="matrix(1,0,0,1,0,370)" opacity="0.58"></path><path d="M 0 306.00644629778986 Q 600 450 600 313.3544022565438 Q 1200 450 1200 315.0022937454791 Q 1800 450 1800 344.69363302043706 Q 2400 450 2400 327.2064710971174 L 2400 800 L 0 800 L 0 322.1723295746712 Z" transform="matrix(1,0,0,1,0,407)" opacity="0.64"></path><path d="M 0 306.00644629778986 Q 600 450 600 313.3544022565438 Q 1200 450 1200 315.0022937454791 Q 1800 450 1800 344.69363302043706 Q 2400 450 2400 327.2064710971174 L 2400 800 L 0 800 L 0 322.1723295746712 Z" transform="matrix(1,0,0,1,0,444)" opacity="0.70"></path><path d="M 0 306.00644629778986 Q 600 450 600 313.3544022565438 Q 1200 450 1200 315.0022937454791 Q 1800 450 1800 344.69363302043706 Q 2400 450 2400 327.2064710971174 L 2400 800 L 0 800 L 0 322.1723295746712 Z" transform="matrix(1,0,0,1,0,481)" opacity="0.76"></path><path d="M 0 306.00644629778986 Q 600 450 600 313.3544022565438 Q 1200 450 1200 315.0022937454791 Q 1800 450 1800 344.69363302043706 Q 2400 450 2400 327.2064710971174 L 2400 800 L 0 800 L 0 322.1723295746712 Z" transform="matrix(1,0,0,1,0,518)" opacity="0.82"></path><path d="M 0 306.00644629778986 Q 600 450 600 313.3544022565438 Q 1200 450 1200 315.0022937454791 Q 1800 450 1800 344.69363302043706 Q 2400 450 2400 327.2064710971174 L 2400 800 L 0 800 L 0 322.1723295746712 Z" transform="matrix(1,0,0,1,0,555)" opacity="0.88"></path><path d="M 0 306.00644629778986 Q 600 450 600 313.3544022565438 Q 1200 450 1200 315.0022937454791 Q 1800 450 1800 344.69363302043706 Q 2400 450 2400 327.2064710971174 L 2400 800 L 0 800 L 0 322.1723295746712 Z" transform="matrix(1,0,0,1,0,592)" opacity="0.94"></path><path d="M 0 306.00644629778986 Q 600 450 600 313.3544022565438 Q 1200 450 1200 315.0022937454791 Q 1800 450 1800 344.69363302043706 Q 2400 450 2400 327.2064710971174 L 2400 800 L 0 800 L 0 322.1723295746712 Z" transform="matrix(1,0,0,1,0,629)" opacity="1.00"></path></g></svg>